<?xml version="1.0" encoding="utf-8"?>
<!-- Generator: Adobe Illustrator 27.2.0, SVG Export Plug-In . SVG Version: 6.00 Build 0)  -->
<svg version="1.1" id="Layer_2" xmlns="http://www.w3.org/2000/svg" xmlns:xlink="http://www.w3.org/1999/xlink" x="0px" y="0px"
	 viewBox="0 0 500 500" style="enable-background:new 0 0 500 500;" xml:space="preserve">
<rect x="1" y="2" width="4" height="4"/>
<rect x="21" y="2" width="4" height="4"/>
<rect x="41" y="2" width="4" height="4"/>
<rect x="61" y="2" width="4" height="4"/>
<rect x="81" y="2" width="4" height="4"/>
<rect x="101" y="2" width="4" height="4"/>
<rect x="121" y="2" width="4" height="4"/>
<rect x="141" y="2" width="4" height="4"/>
<rect x="161" y="2" width="4" height="4"/>
<rect x="181" y="2" width="4" height="4"/>
<rect x="201" y="2" width="4" height="4"/>
<rect x="221" y="2" width="4" height="4"/>
<rect x="241" y="2" width="4" height="4"/>
<rect x="261" y="2" width="4" height="4"/>
<rect x="281" y="2" width="4" height="4"/>
<rect x="301" y="2" width="4" height="4"/>
<rect x="321" y="2" width="4" height="4"/>
<rect x="341" y="2" width="4" height="4"/>
<rect x="361" y="2" width="4" height="4"/>
<rect x="381" y="2" width="4" height="4"/>
<rect x="1" y="22" width="4" height="4"/>
<rect x="21" y="22" width="4" height="4"/>
<rect x="41" y="22" width="4" height="4"/>
<rect x="61" y="22" width="4" height="4"/>
<rect x="81" y="22" width="4" height="4"/>
<rect x="101" y="22" width="4" height="4"/>
<rect x="121" y="22" width="4" height="4"/>
<rect x="141" y="22" width="4" height="4"/>
<rect x="161" y="22" width="4" height="4"/>
<rect x="181" y="22" width="4" height="4"/>
<rect x="201" y="22" width="4" height="4"/>
<rect x="221" y="22" width="4" height="4"/>
<rect x="241" y="22" width="4" height="4"/>
<rect x="261" y="22" width="4" height="4"/>
<rect x="281" y="22" width="4" height="4"/>
<rect x="301" y="22" width="4" height="4"/>
<rect x="321" y="22" width="4" height="4"/>
<rect x="341" y="22" width="4" height="4"/>
<rect x="361" y="22" width="4" height="4"/>
<rect x="381" y="22" width="4" height="4"/>
<rect x="1" y="42" width="4" height="4"/>
<rect x="21" y="42" width="4" height="4"/>
<rect x="41" y="42" width="4" height="4"/>
<rect x="61" y="42" width="4" height="4"/>
<rect x="81" y="42" width="4" height="4"/>
<rect x="101" y="42" width="4" height="4"/>
<rect x="121" y="42" width="4" height="4"/>
<rect x="141" y="42" width="4" height="4"/>
<rect x="161" y="42" width="4" height="4"/>
<rect x="181" y="42" width="4" height="4"/>
<rect x="201" y="42" width="4" height="4"/>
<rect x="221" y="42" width="4" height="4"/>
<rect x="241" y="42" width="4" height="4"/>
<rect x="261" y="42" width="4" height="4"/>
<rect x="281" y="42" width="4" height="4"/>
<rect x="301" y="42" width="4" height="4"/>
<rect x="321" y="42" width="4" height="4"/>
<rect x="341" y="42" width="4" height="4"/>
<rect x="361" y="42" width="4" height="4"/>
<rect x="381" y="42" width="4" height="4"/>
<rect x="1" y="62" width="4" height="4"/>
<rect x="21" y="62" width="4" height="4"/>
<rect x="41" y="62" width="4" height="4"/>
<rect x="61" y="62" width="4" height="4"/>
<rect x="81" y="62" width="4" height="4"/>
<rect x="101" y="62" width="4" height="4"/>
<rect x="121" y="62" width="4" height="4"/>
<rect x="141" y="62" width="4" height="4"/>
<rect x="161" y="62" width="4" height="4"/>
<rect x="181" y="62" width="4" height="4"/>
<rect x="201" y="62" width="4" height="4"/>
<rect x="221" y="62" width="4" height="4"/>
<rect x="241" y="62" width="4" height="4"/>
<rect x="261" y="62" width="4" height="4"/>
<rect x="281" y="62" width="4" height="4"/>
<rect x="301" y="62" width="4" height="4"/>
<rect x="321" y="62" width="4" height="4"/>
<rect x="341" y="62" width="4" height="4"/>
<rect x="361" y="62" width="4" height="4"/>
<rect x="381" y="62" width="4" height="4"/>
<rect x="1" y="82" width="4" height="4"/>
<rect x="21" y="82" width="4" height="4"/>
<rect x="41" y="82" width="4" height="4"/>
<rect x="61" y="82" width="4" height="4"/>
<rect x="81" y="82" width="4" height="4"/>
<rect x="101" y="82" width="4" height="4"/>
<rect x="121" y="82" width="4" height="4"/>
<rect x="141" y="82" width="4" height="4"/>
<rect x="161" y="82" width="4" height="4"/>
<rect x="181" y="82" width="4" height="4"/>
<rect x="201" y="82" width="4" height="4"/>
<rect x="221" y="82" width="4" height="4"/>
<rect x="241" y="82" width="4" height="4"/>
<rect x="261" y="82" width="4" height="4"/>
<rect x="281" y="82" width="4" height="4"/>
<rect x="301" y="82" width="4" height="4"/>
<rect x="321" y="82" width="4" height="4"/>
<rect x="341" y="82" width="4" height="4"/>
<rect x="361" y="82" width="4" height="4"/>
<rect x="381" y="82" width="4" height="4"/>
<rect x="1" y="102" width="4" height="4"/>
<rect x="21" y="102" width="4" height="4"/>
<rect x="41" y="102" width="4" height="4"/>
<rect x="61" y="102" width="4" height="4"/>
<rect x="81" y="102" width="4" height="4"/>
<rect x="101" y="102" width="4" height="4"/>
<rect x="121" y="102" width="4" height="4"/>
<rect x="141" y="102" width="4" height="4"/>
<rect x="161" y="102" width="4" height="4"/>
<rect x="181" y="102" width="4" height="4"/>
<rect x="201" y="102" width="4" height="4"/>
<rect x="221" y="102" width="4" height="4"/>
<rect x="241" y="102" width="4" height="4"/>
<rect x="261" y="102" width="4" height="4"/>
<rect x="281" y="102" width="4" height="4"/>
<rect x="301" y="102" width="4" height="4"/>
<rect x="321" y="102" width="4" height="4"/>
<rect x="341" y="102" width="4" height="4"/>
<rect x="361" y="102" width="4" height="4"/>
<rect x="381" y="102" width="4" height="4"/>
<rect x="1" y="122" width="4" height="4"/>
<rect x="21" y="122" width="4" height="4"/>
<rect x="41" y="122" width="4" height="4"/>
<rect x="61" y="122" width="4" height="4"/>
<rect x="81" y="122" width="4" height="4"/>
<rect x="101" y="122" width="4" height="4"/>
<rect x="121" y="122" width="4" height="4"/>
<rect x="141" y="122" width="4" height="4"/>
<rect x="161" y="122" width="4" height="4"/>
<rect x="181" y="122" width="4" height="4"/>
<rect x="201" y="122" width="4" height="4"/>
<rect x="221" y="122" width="4" height="4"/>
<rect x="241" y="122" width="4" height="4"/>
<rect x="261" y="122" width="4" height="4"/>
<rect x="281" y="122" width="4" height="4"/>
<rect x="301" y="122" width="4" height="4"/>
<rect x="321" y="122" width="4" height="4"/>
<rect x="341" y="122" width="4" height="4"/>
<rect x="361" y="122" width="4" height="4"/>
<rect x="381" y="122" width="4" height="4"/>
<rect x="1" y="142" width="4" height="4"/>
<rect x="21" y="142" width="4" height="4"/>
<rect x="41" y="142" width="4" height="4"/>
<rect x="61" y="142" width="4" height="4"/>
<rect x="81" y="142" width="4" height="4"/>
<rect x="101" y="142" width="4" height="4"/>
<rect x="121" y="142" width="4" height="4"/>
<rect x="141" y="142" width="4" height="4"/>
<rect x="161" y="142" width="4" height="4"/>
<rect x="181" y="142" width="4" height="4"/>
<rect x="201" y="142" width="4" height="4"/>
<rect x="221" y="142" width="4" height="4"/>
<rect x="241" y="142" width="4" height="4"/>
<rect x="261" y="142" width="4" height="4"/>
<rect x="281" y="142" width="4" height="4"/>
<rect x="301" y="142" width="4" height="4"/>
<rect x="321" y="142" width="4" height="4"/>
<rect x="341" y="142" width="4" height="4"/>
<rect x="361" y="142" width="4" height="4"/>
<rect x="381" y="142" width="4" height="4"/>
<rect x="1" y="162" width="4" height="4"/>
<rect x="21" y="162" width="4" height="4"/>
<rect x="41" y="162" width="4" height="4"/>
<rect x="61" y="162" width="4" height="4"/>
<rect x="81" y="162" width="4" height="4"/>
<rect x="101" y="162" width="4" height="4"/>
<rect x="121" y="162" width="4" height="4"/>
<rect x="141" y="162" width="4" height="4"/>
<rect x="161" y="162" width="4" height="4"/>
<rect x="181" y="162" width="4" height="4"/>
<rect x="201" y="162" width="4" height="4"/>
<rect x="221" y="162" width="4" height="4"/>
<rect x="241" y="162" width="4" height="4"/>
<rect x="261" y="162" width="4" height="4"/>
<rect x="281" y="162" width="4" height="4"/>
<rect x="301" y="162" width="4" height="4"/>
<rect x="321" y="162" width="4" height="4"/>
<rect x="341" y="162" width="4" height="4"/>
<rect x="361" y="162" width="4" height="4"/>
<rect x="381" y="162" width="4" height="4"/>
<rect x="1" y="182" width="4" height="4"/>
<rect x="21" y="182" width="4" height="4"/>
<rect x="41" y="182" width="4" height="4"/>
<rect x="61" y="182" width="4" height="4"/>
<rect x="81" y="182" width="4" height="4"/>
<rect x="101" y="182" width="4" height="4"/>
<rect x="121" y="182" width="4" height="4"/>
<rect x="141" y="182" width="4" height="4"/>
<rect x="161" y="182" width="4" height="4"/>
<rect x="181" y="182" width="4" height="4"/>
<rect x="201" y="182" width="4" height="4"/>
<rect x="221" y="182" width="4" height="4"/>
<rect x="241" y="182" width="4" height="4"/>
<rect x="261" y="182" width="4" height="4"/>
<rect x="281" y="182" width="4" height="4"/>
<rect x="301" y="182" width="4" height="4"/>
<rect x="321" y="182" width="4" height="4"/>
<rect x="341" y="182" width="4" height="4"/>
<rect x="361" y="182" width="4" height="4"/>
<rect x="381" y="182" width="4" height="4"/>
<rect x="1" y="202" width="4" height="4"/>
<rect x="21" y="202" width="4" height="4"/>
<rect x="41" y="202" width="4" height="4"/>
<rect x="61" y="202" width="4" height="4"/>
<rect x="81" y="202" width="4" height="4"/>
<rect x="101" y="202" width="4" height="4"/>
<rect x="121" y="202" width="4" height="4"/>
<rect x="141" y="202" width="4" height="4"/>
<rect x="161" y="202" width="4" height="4"/>
<rect x="181" y="202" width="4" height="4"/>
<rect x="201" y="202" width="4" height="4"/>
<rect x="221" y="202" width="4" height="4"/>
<rect x="241" y="202" width="4" height="4"/>
<rect x="261" y="202" width="4" height="4"/>
<rect x="281" y="202" width="4" height="4"/>
<rect x="301" y="202" width="4" height="4"/>
<rect x="321" y="202" width="4" height="4"/>
<rect x="341" y="202" width="4" height="4"/>
<rect x="361" y="202" width="4" height="4"/>
<rect x="381" y="202" width="4" height="4"/>
<rect x="1" y="222" width="4" height="4"/>
<rect x="21" y="222" width="4" height="4"/>
<rect x="41" y="222" width="4" height="4"/>
<rect x="61" y="222" width="4" height="4"/>
<rect x="81" y="222" width="4" height="4"/>
<rect x="101" y="222" width="4" height="4"/>
<rect x="121" y="222" width="4" height="4"/>
<rect x="141" y="222" width="4" height="4"/>
<rect x="161" y="222" width="4" height="4"/>
<rect x="181" y="222" width="4" height="4"/>
<rect x="201" y="222" width="4" height="4"/>
<rect x="221" y="222" width="4" height="4"/>
<rect x="241" y="222" width="4" height="4"/>
<rect x="261" y="222" width="4" height="4"/>
<rect x="281" y="222" width="4" height="4"/>
<rect x="301" y="222" width="4" height="4"/>
<rect x="321" y="222" width="4" height="4"/>
<rect x="341" y="222" width="4" height="4"/>
<rect x="361" y="222" width="4" height="4"/>
<rect x="381" y="222" width="4" height="4"/>
<rect x="1" y="242" width="4" height="4"/>
<rect x="21" y="242" width="4" height="4"/>
<rect x="41" y="242" width="4" height="4"/>
<rect x="61" y="242" width="4" height="4"/>
<rect x="81" y="242" width="4" height="4"/>
<rect x="101" y="242" width="4" height="4"/>
<rect x="121" y="242" width="4" height="4"/>
<rect x="141" y="242" width="4" height="4"/>
<rect x="161" y="242" width="4" height="4"/>
<rect x="181" y="242" width="4" height="4"/>
<rect x="201" y="242" width="4" height="4"/>
<rect x="221" y="242" width="4" height="4"/>
<rect x="241" y="242" width="4" height="4"/>
<rect x="261" y="242" width="4" height="4"/>
<rect x="281" y="242" width="4" height="4"/>
<rect x="301" y="242" width="4" height="4"/>
<rect x="321" y="242" width="4" height="4"/>
<rect x="341" y="242" width="4" height="4"/>
<rect x="361" y="242" width="4" height="4"/>
<rect x="381" y="242" width="4" height="4"/>
<rect x="1" y="262" width="4" height="4"/>
<rect x="21" y="262" width="4" height="4"/>
<rect x="41" y="262" width="4" height="4"/>
<rect x="61" y="262" width="4" height="4"/>
<rect x="81" y="262" width="4" height="4"/>
<rect x="101" y="262" width="4" height="4"/>
<rect x="121" y="262" width="4" height="4"/>
<rect x="141" y="262" width="4" height="4"/>
<rect x="161" y="262" width="4" height="4"/>
<rect x="181" y="262" width="4" height="4"/>
<rect x="201" y="262" width="4" height="4"/>
<rect x="221" y="262" width="4" height="4"/>
<rect x="241" y="262" width="4" height="4"/>
<rect x="261" y="262" width="4" height="4"/>
<rect x="281" y="262" width="4" height="4"/>
<rect x="301" y="262" width="4" height="4"/>
<rect x="321" y="262" width="4" height="4"/>
<rect x="341" y="262" width="4" height="4"/>
<rect x="361" y="262" width="4" height="4"/>
<rect x="381" y="262" width="4" height="4"/>
<rect x="1" y="282" width="4" height="4"/>
<rect x="21" y="282" width="4" height="4"/>
<rect x="41" y="282" width="4" height="4"/>
<rect x="61" y="282" width="4" height="4"/>
<rect x="81" y="282" width="4" height="4"/>
<rect x="101" y="282" width="4" height="4"/>
<rect x="121" y="282" width="4" height="4"/>
<rect x="141" y="282" width="4" height="4"/>
<rect x="161" y="282" width="4" height="4"/>
<rect x="181" y="282" width="4" height="4"/>
<rect x="201" y="282" width="4" height="4"/>
<rect x="221" y="282" width="4" height="4"/>
<rect x="241" y="282" width="4" height="4"/>
<rect x="261" y="282" width="4" height="4"/>
<rect x="281" y="282" width="4" height="4"/>
<rect x="301" y="282" width="4" height="4"/>
<rect x="321" y="282" width="4" height="4"/>
<rect x="341" y="282" width="4" height="4"/>
<rect x="361" y="282" width="4" height="4"/>
<rect x="381" y="282" width="4" height="4"/>
<rect x="1" y="302" width="4" height="4"/>
<rect x="21" y="302" width="4" height="4"/>
<rect x="41" y="302" width="4" height="4"/>
<rect x="61" y="302" width="4" height="4"/>
<rect x="81" y="302" width="4" height="4"/>
<rect x="101" y="302" width="4" height="4"/>
<rect x="121" y="302" width="4" height="4"/>
<rect x="141" y="302" width="4" height="4"/>
<rect x="161" y="302" width="4" height="4"/>
<rect x="181" y="302" width="4" height="4"/>
<rect x="201" y="302" width="4" height="4"/>
<rect x="221" y="302" width="4" height="4"/>
<rect x="241" y="302" width="4" height="4"/>
<rect x="261" y="302" width="4" height="4"/>
<rect x="281" y="302" width="4" height="4"/>
<rect x="301" y="302" width="4" height="4"/>
<rect x="321" y="302" width="4" height="4"/>
<rect x="341" y="302" width="4" height="4"/>
<rect x="361" y="302" width="4" height="4"/>
<rect x="381" y="302" width="4" height="4"/>
<rect x="1" y="322" width="4" height="4"/>
<rect x="21" y="322" width="4" height="4"/>
<rect x="41" y="322" width="4" height="4"/>
<rect x="61" y="322" width="4" height="4"/>
<rect x="81" y="322" width="4" height="4"/>
<rect x="101" y="322" width="4" height="4"/>
<rect x="121" y="322" width="4" height="4"/>
<rect x="141" y="322" width="4" height="4"/>
<rect x="161" y="322" width="4" height="4"/>
<rect x="181" y="322" width="4" height="4"/>
<rect x="201" y="322" width="4" height="4"/>
<rect x="221" y="322" width="4" height="4"/>
<rect x="241" y="322" width="4" height="4"/>
<rect x="261" y="322" width="4" height="4"/>
<rect x="281" y="322" width="4" height="4"/>
<rect x="301" y="322" width="4" height="4"/>
<rect x="321" y="322" width="4" height="4"/>
<rect x="341" y="322" width="4" height="4"/>
<rect x="361" y="322" width="4" height="4"/>
<rect x="381" y="322" width="4" height="4"/>
<rect x="1" y="342" width="4" height="4"/>
<rect x="21" y="342" width="4" height="4"/>
<rect x="41" y="342" width="4" height="4"/>
<rect x="61" y="342" width="4" height="4"/>
<rect x="81" y="342" width="4" height="4"/>
<rect x="101" y="342" width="4" height="4"/>
<rect x="121" y="342" width="4" height="4"/>
<rect x="141" y="342" width="4" height="4"/>
<rect x="161" y="342" width="4" height="4"/>
<rect x="181" y="342" width="4" height="4"/>
<rect x="201" y="342" width="4" height="4"/>
<rect x="221" y="342" width="4" height="4"/>
<rect x="241" y="342" width="4" height="4"/>
<rect x="261" y="342" width="4" height="4"/>
<rect x="281" y="342" width="4" height="4"/>
<rect x="301" y="342" width="4" height="4"/>
<rect x="321" y="342" width="4" height="4"/>
<rect x="341" y="342" width="4" height="4"/>
<rect x="361" y="342" width="4" height="4"/>
<rect x="381" y="342" width="4" height="4"/>
<rect x="1" y="362" width="4" height="4"/>
<rect x="21" y="362" width="4" height="4"/>
<rect x="41" y="362" width="4" height="4"/>
<rect x="61" y="362" width="4" height="4"/>
<rect x="81" y="362" width="4" height="4"/>
<rect x="101" y="362" width="4" height="4"/>
<rect x="121" y="362" width="4" height="4"/>
<rect x="141" y="362" width="4" height="4"/>
<rect x="161" y="362" width="4" height="4"/>
<rect x="181" y="362" width="4" height="4"/>
<rect x="201" y="362" width="4" height="4"/>
<rect x="221" y="362" width="4" height="4"/>
<rect x="241" y="362" width="4" height="4"/>
<rect x="261" y="362" width="4" height="4"/>
<rect x="281" y="362" width="4" height="4"/>
<rect x="301" y="362" width="4" height="4"/>
<rect x="321" y="362" width="4" height="4"/>
<rect x="341" y="362" width="4" height="4"/>
<rect x="361" y="362" width="4" height="4"/>
<rect x="381" y="362" width="4" height="4"/>
<rect x="1" y="382" width="4" height="4"/>
<rect x="21" y="382" width="4" height="4"/>
<rect x="41" y="382" width="4" height="4"/>
<rect x="61" y="382" width="4" height="4"/>
<rect x="81" y="382" width="4" height="4"/>
<rect x="101" y="382" width="4" height="4"/>
<rect x="121" y="382" width="4" height="4"/>
<rect x="141" y="382" width="4" height="4"/>
<rect x="161" y="382" width="4" height="4"/>
<rect x="181" y="382" width="4" height="4"/>
<rect x="201" y="382" width="4" height="4"/>
<rect x="221" y="382" width="4" height="4"/>
<rect x="241" y="382" width="4" height="4"/>
<rect x="261" y="382" width="4" height="4"/>
<rect x="281" y="382" width="4" height="4"/>
<rect x="301" y="382" width="4" height="4"/>
<rect x="321" y="382" width="4" height="4"/>
<rect x="341" y="382" width="4" height="4"/>
<rect x="361" y="382" width="4" height="4"/>
<rect x="381" y="382" width="4" height="4"/>
<rect x="401" y="2" width="4" height="4"/>
<rect x="421" y="2" width="4" height="4"/>
<rect x="441" y="2" width="4" height="4"/>
<rect x="401" y="22" width="4" height="4"/>
<rect x="421" y="22" width="4" height="4"/>
<rect x="441" y="22" width="4" height="4"/>
<rect x="401" y="42" width="4" height="4"/>
<rect x="421" y="42" width="4" height="4"/>
<rect x="441" y="42" width="4" height="4"/>
<rect x="401" y="62" width="4" height="4"/>
<rect x="421" y="62" width="4" height="4"/>
<rect x="441" y="62" width="4" height="4"/>
<rect x="401" y="82" width="4" height="4"/>
<rect x="421" y="82" width="4" height="4"/>
<rect x="441" y="82" width="4" height="4"/>
<rect x="401" y="102" width="4" height="4"/>
<rect x="421" y="102" width="4" height="4"/>
<rect x="441" y="102" width="4" height="4"/>
<rect x="401" y="122" width="4" height="4"/>
<rect x="421" y="122" width="4" height="4"/>
<rect x="441" y="122" width="4" height="4"/>
<rect x="401" y="142" width="4" height="4"/>
<rect x="421" y="142" width="4" height="4"/>
<rect x="441" y="142" width="4" height="4"/>
<rect x="401" y="162" width="4" height="4"/>
<rect x="421" y="162" width="4" height="4"/>
<rect x="441" y="162" width="4" height="4"/>
<rect x="401" y="182" width="4" height="4"/>
<rect x="421" y="182" width="4" height="4"/>
<rect x="441" y="182" width="4" height="4"/>
<rect x="401" y="202" width="4" height="4"/>
<rect x="421" y="202" width="4" height="4"/>
<rect x="441" y="202" width="4" height="4"/>
<rect x="401" y="222" width="4" height="4"/>
<rect x="421" y="222" width="4" height="4"/>
<rect x="441" y="222" width="4" height="4"/>
<rect x="401" y="242" width="4" height="4"/>
<rect x="421" y="242" width="4" height="4"/>
<rect x="441" y="242" width="4" height="4"/>
<rect x="401" y="262" width="4" height="4"/>
<rect x="421" y="262" width="4" height="4"/>
<rect x="441" y="262" width="4" height="4"/>
<rect x="401" y="282" width="4" height="4"/>
<rect x="421" y="282" width="4" height="4"/>
<rect x="441" y="282" width="4" height="4"/>
<rect x="401" y="302" width="4" height="4"/>
<rect x="421" y="302" width="4" height="4"/>
<rect x="441" y="302" width="4" height="4"/>
<rect x="401" y="322" width="4" height="4"/>
<rect x="421" y="322" width="4" height="4"/>
<rect x="441" y="322" width="4" height="4"/>
<rect x="401" y="342" width="4" height="4"/>
<rect x="421" y="342" width="4" height="4"/>
<rect x="441" y="342" width="4" height="4"/>
<rect x="401" y="362" width="4" height="4"/>
<rect x="421" y="362" width="4" height="4"/>
<rect x="441" y="362" width="4" height="4"/>
<rect x="401" y="382" width="4" height="4"/>
<rect x="421" y="382" width="4" height="4"/>
<rect x="441" y="382" width="4" height="4"/>
<rect x="461" y="2" width="4" height="4"/>
<rect x="461" y="22" width="4" height="4"/>
<rect x="461" y="42" width="4" height="4"/>
<rect x="461" y="62" width="4" height="4"/>
<rect x="461" y="82" width="4" height="4"/>
<rect x="461" y="102" width="4" height="4"/>
<rect x="461" y="122" width="4" height="4"/>
<rect x="461" y="142" width="4" height="4"/>
<rect x="461" y="162" width="4" height="4"/>
<rect x="461" y="182" width="4" height="4"/>
<rect x="461" y="202" width="4" height="4"/>
<rect x="461" y="222" width="4" height="4"/>
<rect x="461" y="242" width="4" height="4"/>
<rect x="461" y="262" width="4" height="4"/>
<rect x="461" y="282" width="4" height="4"/>
<rect x="461" y="302" width="4" height="4"/>
<rect x="461" y="322" width="4" height="4"/>
<rect x="461" y="342" width="4" height="4"/>
<rect x="461" y="362" width="4" height="4"/>
<rect x="461" y="382" width="4" height="4"/>
<rect x="481" y="2" width="4" height="4"/>
<rect x="481" y="22" width="4" height="4"/>
<rect x="481" y="42" width="4" height="4"/>
<rect x="481" y="62" width="4" height="4"/>
<rect x="481" y="82" width="4" height="4"/>
<rect x="481" y="102" width="4" height="4"/>
<rect x="481" y="122" width="4" height="4"/>
<rect x="481" y="142" width="4" height="4"/>
<rect x="481" y="162" width="4" height="4"/>
<rect x="481" y="182" width="4" height="4"/>
<rect x="481" y="202" width="4" height="4"/>
<rect x="481" y="222" width="4" height="4"/>
<rect x="481" y="242" width="4" height="4"/>
<rect x="481" y="262" width="4" height="4"/>
<rect x="481" y="282" width="4" height="4"/>
<rect x="481" y="302" width="4" height="4"/>
<rect x="481" y="322" width="4" height="4"/>
<rect x="481" y="342" width="4" height="4"/>
<rect x="481" y="362" width="4" height="4"/>
<rect x="481" y="382" width="4" height="4"/>
<rect x="1" y="402" width="4" height="4"/>
<rect x="21" y="402" width="4" height="4"/>
<rect x="41" y="402" width="4" height="4"/>
<rect x="61" y="402" width="4" height="4"/>
<rect x="81" y="402" width="4" height="4"/>
<rect x="101" y="402" width="4" height="4"/>
<rect x="121" y="402" width="4" height="4"/>
<rect x="141" y="402" width="4" height="4"/>
<rect x="161" y="402" width="4" height="4"/>
<rect x="181" y="402" width="4" height="4"/>
<rect x="201" y="402" width="4" height="4"/>
<rect x="221" y="402" width="4" height="4"/>
<rect x="241" y="402" width="4" height="4"/>
<rect x="261" y="402" width="4" height="4"/>
<rect x="281" y="402" width="4" height="4"/>
<rect x="301" y="402" width="4" height="4"/>
<rect x="321" y="402" width="4" height="4"/>
<rect x="341" y="402" width="4" height="4"/>
<rect x="361" y="402" width="4" height="4"/>
<rect x="381" y="402" width="4" height="4"/>
<rect x="1" y="422" width="4" height="4"/>
<rect x="21" y="422" width="4" height="4"/>
<rect x="41" y="422" width="4" height="4"/>
<rect x="61" y="422" width="4" height="4"/>
<rect x="81" y="422" width="4" height="4"/>
<rect x="101" y="422" width="4" height="4"/>
<rect x="121" y="422" width="4" height="4"/>
<rect x="141" y="422" width="4" height="4"/>
<rect x="161" y="422" width="4" height="4"/>
<rect x="181" y="422" width="4" height="4"/>
<rect x="201" y="422" width="4" height="4"/>
<rect x="221" y="422" width="4" height="4"/>
<rect x="241" y="422" width="4" height="4"/>
<rect x="261" y="422" width="4" height="4"/>
<rect x="281" y="422" width="4" height="4"/>
<rect x="301" y="422" width="4" height="4"/>
<rect x="321" y="422" width="4" height="4"/>
<rect x="341" y="422" width="4" height="4"/>
<rect x="361" y="422" width="4" height="4"/>
<rect x="381" y="422" width="4" height="4"/>
<rect x="1" y="442" width="4" height="4"/>
<rect x="21" y="442" width="4" height="4"/>
<rect x="41" y="442" width="4" height="4"/>
<rect x="61" y="442" width="4" height="4"/>
<rect x="81" y="442" width="4" height="4"/>
<rect x="101" y="442" width="4" height="4"/>
<rect x="121" y="442" width="4" height="4"/>
<rect x="141" y="442" width="4" height="4"/>
<rect x="161" y="442" width="4" height="4"/>
<rect x="181" y="442" width="4" height="4"/>
<rect x="201" y="442" width="4" height="4"/>
<rect x="221" y="442" width="4" height="4"/>
<rect x="241" y="442" width="4" height="4"/>
<rect x="261" y="442" width="4" height="4"/>
<rect x="281" y="442" width="4" height="4"/>
<rect x="301" y="442" width="4" height="4"/>
<rect x="321" y="442" width="4" height="4"/>
<rect x="341" y="442" width="4" height="4"/>
<rect x="361" y="442" width="4" height="4"/>
<rect x="381" y="442" width="4" height="4"/>
<rect x="1" y="462" width="4" height="4"/>
<rect x="21" y="462" width="4" height="4"/>
<rect x="41" y="462" width="4" height="4"/>
<rect x="61" y="462" width="4" height="4"/>
<rect x="81" y="462" width="4" height="4"/>
<rect x="101" y="462" width="4" height="4"/>
<rect x="121" y="462" width="4" height="4"/>
<rect x="141" y="462" width="4" height="4"/>
<rect x="161" y="462" width="4" height="4"/>
<rect x="181" y="462" width="4" height="4"/>
<rect x="201" y="462" width="4" height="4"/>
<rect x="221" y="462" width="4" height="4"/>
<rect x="241" y="462" width="4" height="4"/>
<rect x="261" y="462" width="4" height="4"/>
<rect x="281" y="462" width="4" height="4"/>
<rect x="301" y="462" width="4" height="4"/>
<rect x="321" y="462" width="4" height="4"/>
<rect x="341" y="462" width="4" height="4"/>
<rect x="361" y="462" width="4" height="4"/>
<rect x="381" y="462" width="4" height="4"/>
<rect x="1" y="482" width="4" height="4"/>
<rect x="21" y="482" width="4" height="4"/>
<rect x="41" y="482" width="4" height="4"/>
<rect x="61" y="482" width="4" height="4"/>
<rect x="81" y="482" width="4" height="4"/>
<rect x="101" y="482" width="4" height="4"/>
<rect x="121" y="482" width="4" height="4"/>
<rect x="141" y="482" width="4" height="4"/>
<rect x="161" y="482" width="4" height="4"/>
<rect x="181" y="482" width="4" height="4"/>
<rect x="201" y="482" width="4" height="4"/>
<rect x="221" y="482" width="4" height="4"/>
<rect x="241" y="482" width="4" height="4"/>
<rect x="261" y="482" width="4" height="4"/>
<rect x="281" y="482" width="4" height="4"/>
<rect x="301" y="482" width="4" height="4"/>
<rect x="321" y="482" width="4" height="4"/>
<rect x="341" y="482" width="4" height="4"/>
<rect x="361" y="482" width="4" height="4"/>
<rect x="381" y="482" width="4" height="4"/>
<rect x="401" y="402" width="4" height="4"/>
<rect x="421" y="402" width="4" height="4"/>
<rect x="441" y="402" width="4" height="4"/>
<rect x="401" y="422" width="4" height="4"/>
<rect x="421" y="422" width="4" height="4"/>
<rect x="441" y="422" width="4" height="4"/>
<rect x="401" y="442" width="4" height="4"/>
<rect x="421" y="442" width="4" height="4"/>
<rect x="441" y="442" width="4" height="4"/>
<rect x="401" y="462" width="4" height="4"/>
<rect x="421" y="462" width="4" height="4"/>
<rect x="441" y="462" width="4" height="4"/>
<rect x="401" y="482" width="4" height="4"/>
<rect x="421" y="482" width="4" height="4"/>
<rect x="441" y="482" width="4" height="4"/>
<rect x="461" y="402" width="4" height="4"/>
<rect x="461" y="422" width="4" height="4"/>
<rect x="461" y="442" width="4" height="4"/>
<rect x="461" y="462" width="4" height="4"/>
<rect x="461" y="482" width="4" height="4"/>
<rect x="481" y="402" width="4" height="4"/>
<rect x="481" y="422" width="4" height="4"/>
<rect x="481" y="442" width="4" height="4"/>
<rect x="481" y="462" width="4" height="4"/>
<rect x="481" y="482" width="4" height="4"/>
</svg>
