<?xml version="1.0" encoding="utf-8"?>
<!-- Generator: Adobe Illustrator 27.2.0, SVG Export Plug-In . SVG Version: 6.00 Build 0)  -->
<svg version="1.1" id="Layer_1" xmlns="http://www.w3.org/2000/svg" xmlns:xlink="http://www.w3.org/1999/xlink" x="0px" y="0px"
	 viewBox="0 0 124 105.5" style="enable-background:new 0 0 124 105.5;" xml:space="preserve">
<style type="text/css">
	.st0{fill:#231F20;}
</style>
<path class="st0" d="M77.8,0.9c0,0,45.8,18.1,45.8,67.3c0,28-22.7,37.1-31.5,37.1c-21.2,0-27.7-14.6-27.7-28.8
	c0-17.2,13.5-25.4,23.8-25.4c8.9,0,14.6,2,14.6,2s-0.6-15-10.4-24.8s-21-16.5-21-16.5s-3.5-3.1-1.6-7.6S77.8,0.9,77.8,0.9z"/>
<path class="st0" d="M13.8,0.9c0,0,45.8,18.1,45.8,67.3c0,28-22.7,37.1-31.5,37.1C7,105.3,0.4,90.7,0.4,76.5
	c0-17.2,13.5-25.4,23.8-25.4c8.9,0,14.6,2,14.6,2s-0.6-15-10.4-24.8s-21-16.5-21-16.5S3.8,8.7,5.8,4.2S13.8,0.9,13.8,0.9z"/>
</svg>
