<?xml version="1.0" encoding="utf-8"?>
<!-- Generator: Adobe Illustrator 27.2.0, SVG Export Plug-In . SVG Version: 6.00 Build 0)  -->
<svg version="1.1" id="Layer_1" xmlns="http://www.w3.org/2000/svg" xmlns:xlink="http://www.w3.org/1999/xlink" x="0px" y="0px"
	 viewBox="0 0 124 105.5" style="enable-background:new 0 0 124 105.5;" xml:space="preserve">
<style type="text/css">
	.st0{fill:#231F20;}
</style>
<path class="st0" d="M46.2,0.9c0,0-45.8,18.1-45.8,67.3c0,28,22.7,37.1,31.5,37.1c21.2,0,27.7-14.6,27.7-28.8
	c0-17.2-13.5-25.4-23.8-25.4c-8.9,0-14.6,2-14.6,2s0.6-15,10.4-24.8s21-16.5,21-16.5s3.5-3.1,1.6-7.6S46.2,0.9,46.2,0.9z"/>
<path class="st0" d="M110.2,0.9c0,0-45.8,18.1-45.8,67.3c0,28,22.7,37.1,31.5,37.1c21.2,0,27.7-14.6,27.7-28.8
	c0-17.2-13.5-25.4-23.8-25.4c-8.9,0-14.6,2-14.6,2s0.6-15,10.4-24.8s21-16.5,21-16.5s3.5-3.1,1.6-7.6S110.2,0.9,110.2,0.9z"/>
</svg>
