<?xml version="1.0" encoding="utf-8"?>
<!-- Generator: Adobe Illustrator 27.2.0, SVG Export Plug-In . SVG Version: 6.00 Build 0)  -->
<svg version="1.1" id="Layer_1" xmlns="http://www.w3.org/2000/svg" xmlns:xlink="http://www.w3.org/1999/xlink" x="0px" y="0px"
	 viewBox="0 0 138.5 121" style="enable-background:new 0 0 138.5 121;" xml:space="preserve">
<style type="text/css">
	.st0{fill:none;stroke:#000000;stroke-width:4;stroke-miterlimit:10;}
</style>
<path class="st0" d="M30.7,88.8H9.2c-3.1,0-5.6,2.5-5.6,5.6V118h32.8V94.4C36.4,91.3,33.8,88.8,30.7,88.8z"/>
<path class="st0" d="M63.7,61.3H42.2c-3.1,0-5.6,2.5-5.6,5.6V118h32.8V66.9C69.4,63.8,66.8,61.3,63.7,61.3z"/>
<path class="st0" d="M96.7,31.8H75.2c-3.1,0-5.6,2.5-5.6,5.6V118h32.8V37.4C102.4,34.3,99.8,31.8,96.7,31.8z"/>
<path class="st0" d="M129.7,2.8h-21.5c-3.1,0-5.6,2.5-5.6,5.6V118h32.8V8.4C135.4,5.3,132.8,2.8,129.7,2.8z"/>
</svg>
