<?xml version="1.0" encoding="utf-8"?>
<!-- Generator: Adobe Illustrator 27.2.0, SVG Export Plug-In . SVG Version: 6.00 Build 0)  -->
<svg version="1.1" id="Layer_1" xmlns="http://www.w3.org/2000/svg" xmlns:xlink="http://www.w3.org/1999/xlink" x="0px" y="0px"
	 viewBox="0 0 127.4 104.8" style="enable-background:new 0 0 127.4 104.8;" xml:space="preserve">
<style type="text/css">
	.st0{fill:none;stroke:#231F20;stroke-width:4;stroke-miterlimit:10;}
	.st1{fill:none;stroke:#231F20;stroke-width:4;stroke-linecap:round;stroke-miterlimit:10;}
</style>
<path class="st0" d="M109.7,18.4c0,0-36.2,0-42.9,0S62.7,2.6,53.7,2.6S17,2.6,17,2.6c-8.3,0-15,6.7-15,15v70.8c0,8.3,6.7,15,15,15
	h93.4c8.3,0,15-6.7,15-15V33.8C125.4,25.5,118,18.4,109.7,18.4z"/>
<path class="st0" d="M60.3,10h50.9c7.9,0,14.2,6.4,14.2,14.2v11.4"/>
<path class="st0" d="M78.7,55.4H49c-1.6,0-2.9,1.3-2.9,2.9v26.1c0,1.6,1.3,2.9,2.9,2.9h29.7c1.6,0,2.9-1.3,2.9-2.9V58.3
	C81.6,56.7,80.3,55.4,78.7,55.4z"/>
<path class="st0" d="M76.4,46.8c0,3.3,0,8.6-0.4,8.6c-0.4,0-22.3,0-24.1-0.2c-0.4,0-0.2-5.1-0.2-8.5c0-7.1,5.2-12.9,12.4-12.9
	C71.2,33.9,76.4,39.7,76.4,46.8z"/>
<circle class="st0" cx="63.9" cy="68.3" r="4.6"/>
<line class="st1" x1="63.9" y1="79.6" x2="63.9" y2="72.9"/>
</svg>
