<?xml version="1.0" encoding="UTF-8"?><svg id="Layer_1" xmlns="http://www.w3.org/2000/svg" viewBox="0 0 118.25 129.37"><defs><style>.cls-1{stroke-linecap:round;}.cls-1,.cls-2{fill:none;stroke:#000;stroke-linejoin:round;stroke-width:4px;}</style></defs><polygon class="cls-2" points="116.25 93.87 82.75 127.37 71.45 116.07 88.29 81.42 90.97 75.9 116.25 93.87"/><polygon class="cls-2" points="50.8 25.49 10.27 50.03 2 36.36 26.62 6.72 30.54 2 50.8 25.49"/><path class="cls-1" d="M29.59,100.72s-7.66-1.12-8.59-5.6-7.27-47.18-3.88-49.23"/><path class="cls-1" d="M29.59,81.29v21.46s1.19,2.41,4.77,2.41,4.62-.93,4.62-.93"/><path class="cls-1" d="M41.06,85.99v21.46s1.19,2.41,4.77,2.41,4.62-.93,4.62-.93"/><path class="cls-1" d="M51.8,87.99v21.46s2.41,3.37,5.99,3.37,4.41-1.36,6.16-3.36c1.33-2.87,1.19-6.37,.77-15.76s-2.38-29.07-2.38-29.07c0,0-4.9-.14-8.61-3.71-9.18,4.27-14.09-6.3-13.38-7.49,2.66-7.91,14.64-7,19.82-7s12.75,2.59,15.97,6.37,11.35,28.51,11.35,28.51"/><line class="cls-1" x1="61.07" y1="46.07" x2="44.84" y2="29.1"/><line class="cls-1" x1="73.2" y1="111.13" x2="64.49" y2="107.96"/></svg>