<?xml version="1.0" encoding="utf-8"?>
<!-- Generator: Adobe Illustrator 27.2.0, SVG Export Plug-In . SVG Version: 6.00 Build 0)  -->
<svg version="1.1" id="Layer_1" xmlns="http://www.w3.org/2000/svg" xmlns:xlink="http://www.w3.org/1999/xlink" x="0px" y="0px"
	 viewBox="0 0 120 132.5" style="enable-background:new 0 0 120 132.5;" xml:space="preserve">
<style type="text/css">
	.st0{fill:none;stroke:#231F20;stroke-width:4;stroke-miterlimit:10;}
	.st1{fill:none;stroke:#231F20;stroke-width:4;stroke-linejoin:round;stroke-miterlimit:10;}
</style>
<path class="st0" d="M54.1,106.6c-0.5,2-21.2,13.6-36.1,13.6c-5.7,0-4.9-12.4-3.7-14.9c1.2-2.6-5.1-3.8-5.1-5c0-1.2,1.1-2.2,1.1-3.6
	c0-1.5-3.2-2-3.2-3.4c0-1.4,2.5-5.3,2.5-7.4c0-2.1-6.8-5.6-6.8-9.2c0-3.6,11.5-15.1,11.2-21.5c0-2-3.1-5.5-3.1-7.4s1.1-4.9,1.3-6.9
	C15.8,0.2,70.4,3.4,70.4,3.4s23.7,0.5,37.5,16.2s6.2,38.4,6.2,38.4s0.1,1-13.4,23.5c-8.7,16.1-0.9,37.5,2.2,44.9
	c0.5,1.3-0.4,2.7-1.7,2.7l-48.5,0.5c-1.2,0-2.2-0.6-2.8-1.6c0,0-5.7-12.9-8-14"/>
<path class="st0" d="M54.1,106.6c-0.5,2-21.2,13.6-36.1,13.6c-5.7,0-4.9-12.4-3.7-14.9c1.2-2.6-5.1-3.8-5.1-5c0-1.2,1.1-2.2,1.1-3.6
	c0-1.5-3.2-2-3.2-3.4c0-1.4,2.5-5.3,2.5-7.4c0-2.1-6.8-5.6-6.8-9.2c0-3.6,11.5-15.1,11.2-21.5c0-2-3.1-5.5-3.1-7.4s1.1-4.9,1.3-6.9
	C15.8,0.2,70.4,3.4,70.4,3.4s23.7,0.5,37.5,16.2s6.2,38.4,6.2,38.4s0.1,1-13.4,23.5c-8.7,16.1-0.9,37.5,2.2,44.9
	c0.5,1.3-0.4,2.7-1.7,2.7l-48.5,0.5c-1.2,0-2.2-0.6-2.8-1.6c0,0-5.7-12.9-8-14"/>
<path class="st1" d="M26,40.5c0,0,19.2-23.7,38.9-23.7s39.5,23.7,39.5,23.7S89.6,64.1,65.1,64.1S26,40.5,26,40.5z"/>
<circle class="st1" cx="64.7" cy="40.7" r="14.5"/>
</svg>
