<?xml version="1.0" encoding="utf-8"?>
<!-- Generator: Adobe Illustrator 27.2.0, SVG Export Plug-In . SVG Version: 6.00 Build 0)  -->
<svg version="1.1" id="Layer_1" xmlns="http://www.w3.org/2000/svg" xmlns:xlink="http://www.w3.org/1999/xlink" x="0px" y="0px"
	 viewBox="0 0 120 132.5" style="enable-background:new 0 0 120 132.5;" xml:space="preserve">
<style type="text/css">
	.st0{fill:none;stroke:#231F20;stroke-width:4;stroke-miterlimit:10;}
	.st1{fill:#FFFFFF;stroke:#231F20;stroke-width:4;stroke-miterlimit:10;}
</style>
<path class="st0" d="M54.6,106.9c-0.5,2-21.2,13.6-36.1,13.6c-5.7,0-4.9-12.4-3.7-14.9c1.2-2.6-5.1-3.8-5.1-5c0-1.2,1.1-2.2,1.1-3.6
	c0-1.5-3.2-2-3.2-3.4c0-1.4,2.5-5.3,2.5-7.4c0-2.1-6.8-5.6-6.8-9.2c0-3.6,11.5-15.1,11.2-21.5c0-2-3.1-5.5-3.1-7.4s1.1-4.9,1.3-6.9
	C16.3,0.5,70.9,3.7,70.9,3.7S94.6,4.2,108.5,20s6.2,38.4,6.2,38.4s0.1,1-13.4,23.5c-8.7,16.1-0.9,37.5,2.2,44.9
	c0.5,1.3-0.4,2.7-1.7,2.7l-48.5,0.5c-1.2,0-2.2-0.6-2.8-1.6c0,0-5.7-12.9-8-14"/>
<path class="st0" d="M102.1,44.4H27.9c-1.4,0-2.5-1.1-2.5-2.5v-3.3c0-1.4,1.1-2.5,2.5-2.5h74.2c1.4,0,2.5,1.1,2.5,2.5v3.3
	C104.6,43.3,103.5,44.4,102.1,44.4z"/>
<path class="st1" d="M40.7,24.8h-5.2c-1.4,0-2.5,1.1-2.5,2.5v27c0,1.4,1.1,2.5,2.5,2.5h5.2c1.4,0,2.5-1.1,2.5-2.5v-27
	C43.2,25.9,42.1,24.8,40.7,24.8z"/>
<path class="st1" d="M50.9,20.3h-5.2c-1.4,0-2.5,1.1-2.5,2.5v35c0,1.4,1.1,2.5,2.5,2.5h5.2c1.4,0,2.5-1.1,2.5-2.5v-35
	C53.4,21.5,52.3,20.3,50.9,20.3z"/>
<path class="st1" d="M89.7,24.8h5.2c1.4,0,2.5,1.1,2.5,2.5v27c0,1.4-1.1,2.5-2.5,2.5h-5.2c-1.4,0-2.5-1.1-2.5-2.5v-27
	C87.2,25.9,88.3,24.8,89.7,24.8z"/>
<path class="st1" d="M79.5,20.3h5.2c1.4,0,2.5,1.1,2.5,2.5v35c0,1.4-1.1,2.5-2.5,2.5h-5.2c-1.4,0-2.5-1.1-2.5-2.5v-35
	C77,21.5,78.1,20.3,79.5,20.3z"/>
</svg>
