<?xml version="1.0" encoding="UTF-8"?><svg id="Layer_1" xmlns="http://www.w3.org/2000/svg" viewBox="0 0 117.57 128.92"><defs><style>.cls-1{fill:none;stroke:#221f1f;stroke-linecap:round;stroke-linejoin:round;stroke-width:4px;}</style></defs><path class="cls-1" d="M100.93,40.07c-28.2-19.24-42.15,14.94-42.15,14.94,0,0-13.95-34.18-42.15-14.94-29.88,24.09-6.41,47.47,3.92,55.84,10.33,8.38,38.23,31,38.23,31,0,0,27.9-22.63,38.23-31,10.33-8.38,33.81-31.75,3.92-55.84Z"/><path class="cls-1" d="M21.18,65.72s-1.56,5.99,4.11,11.78c4.82,5.21,18.86,17,20.36,19.8s1.4,5.14-2.24,8.78c-3.64,3.64-9.64,.55-9.64,.55"/><path class="cls-1" d="M96.36,65.72s1.56,5.99-4.11,11.78c-4.82,5.21-18.86,17-20.36,19.8s-1.4,5.14,2.24,8.78c3.64,3.64,9.64,.55,9.64,.55"/><circle class="cls-1" cx="58.78" cy="75.09" r="10.09"/><path class="cls-1" d="M46.55,100.38s3.02-9.25,12.23-9.25,12.2,9.25,12.2,9.25"/><circle class="cls-1" cx="32.17" cy="15.47" r="13.47"/><circle class="cls-1" cx="84.17" cy="15.47" r="13.47"/></svg>