<?xml version="1.0" encoding="UTF-8"?><svg id="Layer_1" xmlns="http://www.w3.org/2000/svg" viewBox="0 0 122.09 128.92"><defs><style>.cls-1{stroke-linecap:round;}.cls-1,.cls-2{fill:none;stroke:#231f20;stroke-miterlimit:10;stroke-width:4px;}</style></defs><path class="cls-2" d="M88.52,33.69h19.58"/><path class="cls-2" d="M108.1,33.69c6.62,0,12,5.37,12,12V114.92c0,6.62-5.37,12-12,12H14c-6.62,0-12-5.37-12-12V45.68c0-6.62,5.37-12,12-12h18.87"/><rect class="cls-2" x="34.33" y="28.1" width="52.32" height="15.19" rx="1.74" ry="1.74"/><path class="cls-1" d="M28.61,41.29H12.72c-1.74,0-3.16,1.41-3.16,3.16V116.24c0,1.74,1.41,3.16,3.16,3.16H109.55c1.74,0,3.16-1.41,3.16-3.16V44.44c0-1.74-1.41-3.16-3.16-3.16h-16.12"/><path class="cls-2" d="M74.77,26.09V14.05c0-6.65-5.39-12.05-12.05-12.05h-3.36c-6.65,0-12.05,5.39-12.05,12.05v12.05"/><circle class="cls-2" cx="61.13" cy="15.01" r="5.84"/><line class="cls-1" x1="24.11" y1="53.86" x2="38.83" y2="68.58"/><line class="cls-1" x1="38.83" y1="53.86" x2="24.11" y2="68.58"/><line class="cls-1" x1="54.11" y1="53.86" x2="68.83" y2="68.58"/><line class="cls-1" x1="68.83" y1="53.86" x2="54.11" y2="68.58"/><circle class="cls-1" cx="32.89" cy="92.45" r="9.26"/><line class="cls-1" x1="90.05" y1="97.34" x2="104.77" y2="112.06"/><line class="cls-1" x1="104.77" y1="97.34" x2="90.05" y2="112.06"/><path class="cls-1" d="M42.15,92.45h29.75c23.16,0,21.11-30.84,21.11-30.84"/><line class="cls-1" x1="93.05" y1="58.22" x2="100.41" y2="65.58"/><line class="cls-1" x1="93.05" y1="58.22" x2="85.69" y2="65.58"/></svg>